<?xml version="1.0" encoding="utf-8"?>
<svg viewBox="0 0 300 300" xmlns="http://www.w3.org/2000/svg">
  <rect width="300" height="300" style="fill: rgb(255, 117, 51);"/>
  <path fill-rule="evenodd" clip-rule="evenodd" d="M 98.657 235.839 C 84.498 227.39 72.239 215.31 63.409 200.011 C 54.58 184.722 50.25 168.083 50 151.604 L 51.45 151.894 C 80.938 157.693 114.487 147.194 142.065 130.265 C 145.685 128.045 149.245 125.685 152.705 123.215 C 156.835 128.375 160.534 133.605 163.514 138.764 C 167.254 145.234 170.634 152.934 173.654 161.163 C 168.484 163.663 163.434 166.423 158.574 169.383 C 130.656 186.372 106.847 211.151 98.657 235.829 L 98.657 235.839 Z M 192.603 240.489 C 166.554 252.789 137.426 252.859 112.217 242.599 L 112.897 240.549 C 119.536 220.53 140.095 198.191 166.374 182.192 C 170.324 179.792 174.354 177.562 178.443 175.522 C 180.963 183.822 183.143 192.232 184.993 200.141 C 187.383 210.391 189.163 219.59 190.333 226.21 C 190.923 229.52 191.363 232.19 191.653 234.02 C 191.793 234.929 191.903 235.639 191.973 236.109 L 192.053 236.639 L 192.073 236.769 L 192.073 236.799 L 192.603 240.489 Z" style="fill: rgb(255, 255, 255);"/>
  <path d="M 192.263 169.443 C 211.142 162.253 230.381 159.483 247.03 163.143 L 249.08 163.593 C 247.86 172.433 245.47 181.082 241.96 189.302 C 234.721 206.291 222.731 221.41 206.592 232.46 L 206.462 231.67 C 206.162 229.76 205.712 227 205.102 223.59 C 203.892 216.77 202.062 207.311 199.602 196.731 C 197.613 188.202 195.173 178.812 192.263 169.443 Z" style="fill: rgb(255, 255, 255);"/>
  <path d="M 164.534 113.996 C 181.823 99.296 195.403 81.887 201.252 64.498 L 201.352 64.188 C 215.512 72.648 227.771 84.717 236.601 100.016 C 245.43 115.306 249.76 131.955 250 148.434 C 230.051 144.124 208.142 147.424 187.453 155.224 C 184.243 146.594 180.603 138.364 176.504 131.265 C 173.144 125.445 169.044 119.635 164.534 113.996 Z" style="fill: rgb(255, 255, 255);"/>
  <path d="M 113.197 64.558 C 110.677 62.568 108.627 60.998 107.197 59.918 L 106.967 59.748 C 124.596 51.319 143.655 48.509 161.964 50.729 C 170.834 51.809 179.533 54.059 187.803 57.428 L 187.033 59.718 C 182.263 73.898 170.534 89.217 154.755 102.626 C 147.455 94.667 139.745 87.307 132.726 81.007 C 125.156 74.218 118.237 68.538 113.197 64.558 Z" style="fill: rgb(255, 255, 255);"/>
  <path d="M 134.216 117.485 C 108.347 133.365 78.709 141.974 54.35 137.174 L 50.92 136.494 C 54.61 109.566 69.209 84.397 92.828 67.968 L 96.108 70.358 L 96.128 70.368 L 96.218 70.438 L 96.608 70.728 C 96.958 70.988 97.478 71.368 98.158 71.878 C 99.507 72.898 101.467 74.408 103.887 76.327 C 108.747 80.167 115.427 85.637 122.716 92.177 C 129.316 98.096 136.296 104.776 142.835 111.826 C 140.045 113.786 137.166 115.675 134.216 117.485 Z" style="fill: rgb(255, 255, 255);"/>
</svg>