<?xml version="1.0" encoding="utf-8"?>
<svg viewBox="0 0 300 300" xmlns="http://www.w3.org/2000/svg">
  <rect width="300" height="300" style="fill: rgb(16, 16, 218);"/>
  <path d="M 195.025 200.388 C 193.9 199.76 192.552 199.393 191.119 199.393 C 188.038 199.393 185.349 201.107 183.969 203.632 L 183.949 203.671 C 174.057 221.657 155.233 233.643 133.61 233.643 C 101.99 233.643 76.356 208.009 76.356 176.389 C 76.356 157.723 85.294 141.138 99.118 130.689 L 99.262 130.585 C 101.251 129.08 102.527 126.712 102.527 124.048 C 102.527 119.535 98.863 115.871 94.348 115.871 C 92.497 115.871 90.782 116.485 89.415 117.526 L 89.435 117.513 C 71.482 131.082 60 152.398 60 176.396 C 60 217.045 92.955 250 133.604 250 C 161.397 250 185.597 234.592 198.12 211.85 L 198.31 211.471 C 198.938 210.345 199.305 208.997 199.305 207.572 C 199.305 204.49 197.59 201.801 195.071 200.414 L 195.032 200.393 L 195.025 200.388 Z M 251.239 207.12 C 250.33 203.528 247.131 200.917 243.316 200.917 C 242.61 200.917 241.923 201.009 241.269 201.179 L 241.327 201.166 L 222.452 205.883 L 204.781 154.119 C 203.642 150.873 200.607 148.583 197.034 148.583 L 139.099 148.583 L 136.581 132.227 L 164.792 132.227 C 169.306 132.227 172.97 128.563 172.97 124.048 C 172.97 119.535 169.306 115.871 164.792 115.871 L 134.062 115.871 L 130.117 90.224 C 136.444 86.364 140.611 79.5 140.611 71.663 C 140.611 59.703 130.915 50 118.948 50 C 106.982 50 97.287 59.696 97.287 71.663 C 97.287 81.856 104.326 90.401 113.806 92.71 L 113.957 92.742 L 123.993 158.004 C 124.615 161.956 127.997 164.939 132.072 164.939 C 132.072 164.939 132.072 164.939 132.072 164.939 L 191.172 164.939 L 209.38 218.288 C 210.518 221.533 213.554 223.823 217.126 223.823 C 217.826 223.823 218.514 223.732 219.161 223.568 L 219.102 223.581 L 245.272 217.038 C 248.858 216.123 251.468 212.916 251.468 209.102 C 251.468 208.396 251.376 207.715 251.213 207.06 L 251.226 207.12 L 251.239 207.12 Z" style="fill: rgb(255, 255, 255);"/>
</svg>