<?xml version="1.0" encoding="utf-8"?>
<svg viewBox="0 0 300 300" xmlns="http://www.w3.org/2000/svg">
  <rect width="300" height="300" style="fill: rgb(134, 51, 255);"/>
  <path d="M 242.19 156.571 C 236.604 182.657 217.412 204.086 192.107 212.497 C 184.343 215.082 176.3 216.39 168.197 216.39 C 135.588 216.39 106.757 195.622 96.449 164.714 C 90.067 145.583 91.531 125.115 100.571 107.076 C 109.61 89.041 125.144 75.595 144.308 69.221 C 162.335 63.235 181.911 64.235 199.169 71.978 L 202.911 64.923 C 177.849 49.441 146.633 45.736 118.566 55.071 C 93.184 63.511 72.612 81.318 60.639 105.203 C 48.666 129.092 46.73 156.207 55.181 181.553 C 68.834 222.493 107.021 249.999 150.206 249.999 C 160.938 249.999 171.586 248.267 181.863 244.853 C 220.169 232.113 246.952 197.915 250.097 157.723 L 242.19 156.571 Z M 192.871 108.356 L 172.807 70.805 L 162.603 112.73 L 120.871 120.933 L 159.074 142.626 L 152.503 185.826 L 184.944 156.319 L 225.143 175.606 L 204.611 135.483 L 237.12 104.102 L 192.871 108.356 Z" style="fill: rgb(255, 255, 255);"/>
</svg>