<?xml version="1.0" encoding="utf-8"?>
<svg viewBox="0 0 300 300" xmlns="http://www.w3.org/2000/svg" xmlns:bx="https://boxy-svg.com">
  <rect width="300" height="300" style="fill: rgb(218, 16, 16);"/>
  <path d="M 120.341 89.63 L 94.911 114.98 C 90.241 119.64 85.951 123.919 82.561 127.779 C 80.391 130.259 78.211 132.979 76.371 135.979 L 76.121 135.739 C 75.651 135.269 75.421 135.029 75.181 134.799 C 70.761 130.509 65.561 127.099 59.861 124.749 C 59.561 124.629 59.251 124.509 58.631 124.259 L 54.841 122.759 C 49.711 120.73 48.351 114.13 52.251 110.23 C 63.451 99.07 76.901 85.66 83.391 82.96 C 89.121 80.59 95.301 79.8 101.261 80.68 C 106.731 81.49 111.901 84.29 120.341 89.63 Z" style="fill: rgb(255, 255, 255);"/>
  <path d="M 163.77 223.129 C 165.81 225.209 167.18 226.679 168.41 228.249 C 170.03 230.319 171.48 232.519 172.75 234.829 C 174.17 237.419 175.28 240.199 177.49 245.749 C 179.29 250.259 185.27 251.459 188.74 247.989 L 189.58 247.149 C 200.79 235.989 214.24 222.579 216.94 216.109 C 219.32 210.399 220.11 204.229 219.23 198.289 C 218.42 192.839 215.6 187.689 210.25 179.269 L 184.74 204.709 C 179.96 209.479 175.57 213.849 171.61 217.269 C 169.23 219.319 166.64 221.369 163.77 223.129 Z" style="fill: rgb(255, 255, 255);"/>
  <path fill-rule="evenodd" clip-rule="evenodd" d="M 174.47 193.769 L 232.93 135.469 C 241.35 127.079 245.56 122.879 247.78 117.54 C 250 112.21 250 106.27 250 94.4 L 250 88.72 C 250 70.47 250 61.34 244.31 55.67 C 238.62 50 229.47 50 211.16 50 L 205.47 50 C 193.56 50 187.6 50 182.25 52.21 C 176.9 54.42 172.69 58.62 164.27 67.01 L 105.801 125.309 C 95.961 135.109 89.861 141.199 87.501 147.069 C 86.751 148.929 86.381 150.759 86.381 152.689 C 86.381 160.709 92.851 167.169 105.801 180.069 L 107.541 181.809 L 127.921 161.119 C 130.831 158.169 135.581 158.129 138.531 161.039 C 141.481 163.949 141.511 168.699 138.611 171.649 L 118.161 192.399 L 119.531 193.769 C 132.481 206.679 138.951 213.129 147.001 213.129 C 148.781 213.129 150.481 212.819 152.19 212.189 C 158.22 209.959 164.38 203.819 174.47 193.769 Z M 201.93 125.309 C 194.35 132.869 182.05 132.869 174.47 125.309 C 166.88 117.75 166.88 105.49 174.47 97.92 C 182.05 90.36 194.35 90.36 201.93 97.92 C 209.52 105.49 209.52 117.75 201.93 125.309 Z" style="fill: rgb(255, 255, 255);"/>
  <path d="M 110.502 179.674 L 137.577 246.352 L 83.426 246.352 L 110.502 179.674 Z" style="fill: rgb(255, 255, 255); transform-origin: 110.502px 213.013px;" transform="matrix(-0.707108020782, -0.707106113434, 0.707106113434, -0.707108020782, -30.308267630164, 6.061794183137)" bx:shape="triangle 83.426 179.674 54.151 66.678 0.5 0 1@806956bc"/>
</svg>