<?xml version="1.0" encoding="utf-8"?>
<svg viewBox="0 0 300 300" xmlns="http://www.w3.org/2000/svg">
  <rect width="300" height="300" style="fill: rgb(255, 155, 242);"/>
  <path d="M 206.111 112.671 L 205.745 112.671 C 210.678 69.707 167.252 37.515 127.577 54.724 C 104.884 64.568 91.299 88.096 94.121 112.671 L 93.754 112.671 C 79.339 112.671 70.329 128.277 77.537 140.761 C 80.882 146.555 87.064 150.124 93.754 150.124 L 206.111 150.124 C 220.527 150.124 229.537 134.519 222.329 122.035 C 218.984 116.241 212.802 112.671 206.111 112.671 Z M 138.768 242.854 C 142.733 251.449 154.517 252.528 159.978 244.795 C 160.41 244.184 160.785 243.534 161.099 242.854 L 199.87 162.608 L 99.996 162.608 L 138.768 242.854 Z" style="fill: rgb(255, 255, 255);"/>
</svg>